<?xml version="1.0" encoding="UTF-8" standalone="no"?><!-- Generator: Gravit.io --><svg xmlns="http://www.w3.org/2000/svg" xmlns:xlink="http://www.w3.org/1999/xlink" style="isolation:isolate" viewBox="0 0 128 128" width="128pt" height="128pt"><defs><clipPath id="_clipPath_CxKBZDyiyT5fYwQN0KAoy69bVVfo5V7e"><rect width="128" height="128"/></clipPath></defs><g clip-path="url(#_clipPath_CxKBZDyiyT5fYwQN0KAoy69bVVfo5V7e)"><path d=" M 44.356 39.798 C 44.181 40.926 44.305 43.54 45.201 47.22 C 36.703 40.255 25.971 40.494 14.143 42.704 C 10.394 43.404 6.679 43.637 3 43.402 C 4.892 50.573 6.906 56.426 9.043 60.961 C 13.026 69.416 19.466 75.241 21.353 76.761 C 22.628 77.788 26.861 79.816 33.675 81.011 C 32.915 81.263 32.2 81.533 31.531 81.82 C 21.072 86.32 16.501 96.28 13.292 108.168 C 12.298 111.851 10.898 115.299 9.091 118.513 C 16.374 119.917 22.522 120.638 27.534 120.679 C 36.88 120.754 44.921 117.475 47.109 116.434 C 49.296 115.392 56.262 109.465 62.131 97.183 C 62.83 95.721 63.47 94.159 64.052 92.496 C 66.929 100.684 69.973 106.644 73.184 110.376 C 80.611 119.006 91.484 120.383 103.787 119.883 C 107.597 119.728 111.307 120.031 114.915 120.792 C 114.071 113.424 112.918 107.342 111.455 102.547 C 108.726 93.609 103.19 86.918 101.54 85.144 C 100.536 84.064 97.275 81.836 91.836 79.825 C 94.993 79.504 97.69 78.957 99.923 78.185 C 110.684 74.467 115.975 64.87 120.05 53.25 C 121.312 49.651 122.962 46.315 125 43.242 C 117.84 41.308 111.762 40.136 106.766 39.727 C 97.451 38.964 89.191 41.643 86.933 42.521 C 85.981 42.891 84.118 44.064 81.775 46.184 C 83.824 35.107 78.189 25.786 70.225 16.504 C 67.742 13.609 65.681 10.51 64.042 7.208 C 58.782 12.437 54.724 17.111 51.868 21.231 C 46.544 28.912 44.726 37.404 44.356 39.798 Z  M 64.177 81.603 C 71.417 81.603 77.287 75.733 77.287 68.493 C 77.287 61.253 71.417 55.383 64.177 55.383 C 56.936 55.383 51.067 61.253 51.067 68.493 C 51.067 75.733 56.936 81.603 64.177 81.603 Z " fill-rule="evenodd" fill="rgb(255,255,255)"/></g></svg>