<?xml version="1.0" encoding="UTF-8" standalone="no"?><!-- Generator: Gravit.io --><svg xmlns="http://www.w3.org/2000/svg" xmlns:xlink="http://www.w3.org/1999/xlink" style="isolation:isolate" viewBox="0 0 128 128" width="128pt" height="128pt"><defs><clipPath id="_clipPath_eHcQSGW5kGGazchU5Uln8yKy1TQR0J9s"><rect width="128" height="128"/></clipPath></defs><g clip-path="url(#_clipPath_eHcQSGW5kGGazchU5Uln8yKy1TQR0J9s)"><g><g><g><path d=" M 78.718 74.638 C 91.953 76.523 99.554 81.307 101.174 83.049 C 102.794 84.792 108.231 91.361 110.91 100.139 C 112.347 104.848 113.48 110.82 114.308 118.056 C 110.765 117.309 107.122 117.011 103.38 117.164 C 91.298 117.655 80.622 116.302 73.328 107.828 C 68.466 102.178 63.995 91.327 59.915 75.277 C 67.08 74.086 73.348 73.873 78.718 74.638 Z " fill="rgb(251,189,78)"/><clipPath id="_clipPath_ZiJqrnY0UJq2QisfYTUIErJAcXOlmJ7z"><path d=" M 78.718 74.638 C 91.953 76.523 99.554 81.307 101.174 83.049 C 102.794 84.792 108.231 91.361 110.91 100.139 C 112.347 104.848 113.48 110.82 114.308 118.056 C 110.765 117.309 107.122 117.011 103.38 117.164 C 91.298 117.655 80.622 116.302 73.328 107.828 C 68.466 102.178 63.995 91.327 59.915 75.277 C 67.08 74.086 73.348 73.873 78.718 74.638 Z " fill-rule="evenodd" fill="rgb(255,255,255)"/></clipPath><g clip-path="url(#_clipPath_ZiJqrnY0UJq2QisfYTUIErJAcXOlmJ7z)"><g><mask id="_mask_3y7DVUkVdumWxWXTnhG3rxSb4ElOUZ9m" x="-200%" y="-200%" width="400%" height="400%"><rect x="-200%" y="-200%" width="400%" height="400%" style="fill:white;"/><path d=" M 102.815 108.581 C 85.741 96.9 80.636 90.332 64.491 75.196" fill-rule="evenodd" fill="black" stroke="none"/></mask><path d=" M 102.815 108.581 C 85.741 96.9 80.636 90.332 64.491 75.196" fill-rule="evenodd" fill="none"/><path d=" M 102.815 108.581 C 85.741 96.9 80.636 90.332 64.491 75.196" fill-rule="evenodd" fill="none" mask="url(#_mask_3y7DVUkVdumWxWXTnhG3rxSb4ElOUZ9m)" vector-effect="non-scaling-stroke" stroke-width="12" stroke="rgb(253,220,113)" stroke-opacity="100" stroke-linejoin="miter" stroke-linecap="round" stroke-miterlimit="1"/></g></g></g><g><path d=" M 70.726 58.961 C 77.362 47.356 84.612 42.055 86.829 41.193 C 89.047 40.33 97.159 37.7 106.306 38.449 C 111.212 38.851 117.181 40.001 124.212 41.901 C 122.21 44.919 120.59 48.194 119.351 51.729 C 115.349 63.14 110.153 72.564 99.586 76.216 C 92.541 78.65 80.806 78.803 64.382 76.673 C 65.92 69.574 68.034 63.67 70.726 58.961 Z " fill="rgb(251,189,78)"/><clipPath id="_clipPath_2rh7Pj77nFsh7b6djkghrSRmK2YaTJ8d"><path d=" M 70.726 58.961 C 77.362 47.356 84.612 42.055 86.829 41.193 C 89.047 40.33 97.159 37.7 106.306 38.449 C 111.212 38.851 117.181 40.001 124.212 41.901 C 122.21 44.919 120.59 48.194 119.351 51.729 C 115.349 63.14 110.153 72.564 99.586 76.216 C 92.541 78.65 80.806 78.803 64.382 76.673 C 65.92 69.574 68.034 63.67 70.726 58.961 Z " fill-rule="evenodd" fill="rgb(255,255,255)"/></clipPath><g clip-path="url(#_clipPath_2rh7Pj77nFsh7b6djkghrSRmK2YaTJ8d)"><g><mask id="_mask_9JJozalQs1k3PvxdE52U06hfYB6mtXEy" x="-200%" y="-200%" width="400%" height="400%"><rect x="-200%" y="-200%" width="400%" height="400%" style="fill:white;"/><path d=" M 64.491 75.196 C 79.652 64.865 90.625 57.122 109.51 48.596" fill-rule="evenodd" fill="black" stroke="none"/></mask><path d=" M 64.491 75.196 C 79.652 64.865 90.625 57.122 109.51 48.596" fill-rule="evenodd" fill="none"/><path d=" M 64.491 75.196 C 79.652 64.865 90.625 57.122 109.51 48.596" fill-rule="evenodd" fill="none" mask="url(#_mask_9JJozalQs1k3PvxdE52U06hfYB6mtXEy)" vector-effect="non-scaling-stroke" stroke-width="12" stroke="rgb(253,220,113)" stroke-opacity="100" stroke-linejoin="miter" stroke-linecap="round" stroke-miterlimit="1"/></g></g></g><g><path d=" M 52.335 61.354 C 45.612 49.8 44.654 40.87 45.018 38.519 C 45.382 36.168 47.167 27.829 52.396 20.286 C 55.2 16.24 59.185 11.65 64.35 6.515 C 65.96 9.758 67.984 12.801 70.422 15.644 C 78.296 24.821 83.852 34.038 81.722 45.014 C 80.302 52.331 74.558 62.565 64.491 75.715 C 59.115 70.83 55.063 66.043 52.335 61.354 Z " fill="rgb(251,189,78)"/><clipPath id="_clipPath_BwFmdjHEmcLKQm4mDwbeeFukvuk1RHrQ"><path d=" M 52.335 61.354 C 45.612 49.8 44.654 40.87 45.018 38.519 C 45.382 36.168 47.167 27.829 52.396 20.286 C 55.2 16.24 59.185 11.65 64.35 6.515 C 65.96 9.758 67.984 12.801 70.422 15.644 C 78.296 24.821 83.852 34.038 81.722 45.014 C 80.302 52.331 74.558 62.565 64.491 75.715 C 59.115 70.83 55.063 66.043 52.335 61.354 Z " fill-rule="evenodd" fill="rgb(255,255,255)"/></clipPath><g clip-path="url(#_clipPath_BwFmdjHEmcLKQm4mDwbeeFukvuk1RHrQ)"><g><mask id="_mask_kPGIDVPN2DkNEB9gUrVwd2W0WjTKHNt7" x="-200%" y="-200%" width="400%" height="400%"><rect x="-200%" y="-200%" width="400%" height="400%" style="fill:white;"/><path d=" M 64.524 75.196 C 62.428 57.311 60.98 40.144 62.988 21.844" fill-rule="evenodd" fill="black" stroke="none"/></mask><path d=" M 64.524 75.196 C 62.428 57.311 60.98 40.144 62.988 21.844" fill-rule="evenodd" fill="none"/><path d=" M 64.524 75.196 C 62.428 57.311 60.98 40.144 62.988 21.844" fill-rule="evenodd" fill="none" mask="url(#_mask_kPGIDVPN2DkNEB9gUrVwd2W0WjTKHNt7)" vector-effect="non-scaling-stroke" stroke-width="12" stroke="rgb(253,220,113)" stroke-opacity="100" stroke-linejoin="miter" stroke-linecap="round" stroke-miterlimit="1"/></g></g></g><g><path d=" M 45.859 79.918 C 32.491 79.952 24.282 76.309 22.429 74.817 C 20.576 73.325 14.252 67.604 10.34 59.301 C 8.242 54.848 6.264 49.1 4.406 42.058 C 8.02 42.289 11.667 42.061 15.349 41.373 C 27.235 39.152 37.995 38.958 46.43 46.298 C 52.052 51.192 58.034 61.288 64.376 76.586 C 57.456 78.793 51.283 79.904 45.859 79.918 Z " fill="rgb(251,189,78)"/><clipPath id="_clipPath_PNh9aRzd1fK9BOj4BiiSpTqvRJ0WRsTo"><path d=" M 45.859 79.918 C 32.491 79.952 24.282 76.309 22.429 74.817 C 20.576 73.325 14.252 67.604 10.34 59.301 C 8.242 54.848 6.264 49.1 4.406 42.058 C 8.02 42.289 11.667 42.061 15.349 41.373 C 27.235 39.152 37.995 38.958 46.43 46.298 C 52.052 51.192 58.034 61.288 64.376 76.586 C 57.456 78.793 51.283 79.904 45.859 79.918 Z " fill-rule="evenodd" fill="rgb(255,255,255)"/></clipPath><g clip-path="url(#_clipPath_PNh9aRzd1fK9BOj4BiiSpTqvRJ0WRsTo)"><g><mask id="_mask_W1KgTtjwjEZCzzk2vavWB04h1t5rhFnQ" x="-200%" y="-200%" width="400%" height="400%"><rect x="-200%" y="-200%" width="400%" height="400%" style="fill:white;"/><path d=" M 17.665 50.481 C 33.125 60.55 46.451 68.449 63.907 75.196" fill-rule="evenodd" fill="black" stroke="none"/></mask><path d=" M 17.665 50.481 C 33.125 60.55 46.451 68.449 63.907 75.196" fill-rule="evenodd" fill="none"/><path d=" M 17.665 50.481 C 33.125 60.55 46.451 68.449 63.907 75.196" fill-rule="evenodd" fill="none" mask="url(#_mask_W1KgTtjwjEZCzzk2vavWB04h1t5rhFnQ)" vector-effect="non-scaling-stroke" stroke-width="12" stroke="rgb(253,220,113)" stroke-opacity="100" stroke-linejoin="miter" stroke-linecap="round" stroke-miterlimit="1"/></g></g></g><g><path d=" M 62.474 94.872 C 56.71 106.933 49.87 112.753 47.721 113.776 C 45.573 114.799 37.677 118.019 28.499 117.945 C 23.577 117.905 17.54 117.196 10.388 115.818 C 12.162 112.662 13.537 109.276 14.513 105.66 C 17.665 93.985 22.153 84.205 32.424 79.785 C 39.271 76.839 50.963 75.824 67.498 76.741 C 66.487 83.934 64.813 89.978 62.474 94.872 Z " fill="rgb(251,189,78)"/><clipPath id="_clipPath_79ABWiCVa8DTRceUFPaBlXPpsTjozKyA"><path d=" M 62.474 94.872 C 56.71 106.933 49.87 112.753 47.721 113.776 C 45.573 114.799 37.677 118.019 28.499 117.945 C 23.577 117.905 17.54 117.196 10.388 115.818 C 12.162 112.662 13.537 109.276 14.513 105.66 C 17.665 93.985 22.153 84.205 32.424 79.785 C 39.271 76.839 50.963 75.824 67.498 76.741 C 66.487 83.934 64.813 89.978 62.474 94.872 Z " fill-rule="evenodd" fill="rgb(255,255,255)"/></clipPath><g clip-path="url(#_clipPath_79ABWiCVa8DTRceUFPaBlXPpsTjozKyA)"><g><mask id="_mask_1WYiaMiw2kYB1HIePrR2XxG3DQb0FENX" x="-200%" y="-200%" width="400%" height="400%"><rect x="-200%" y="-200%" width="400%" height="400%" style="fill:white;"/><path d=" M 23.165 108.205 C 40.671 98.16 50.306 89.031 64.491 75.196" fill-rule="evenodd" fill="black" stroke="none"/></mask><path d=" M 23.165 108.205 C 40.671 98.16 50.306 89.031 64.491 75.196" fill-rule="evenodd" fill="none"/><path d=" M 23.165 108.205 C 40.671 98.16 50.306 89.031 64.491 75.196" fill-rule="evenodd" fill="none" mask="url(#_mask_1WYiaMiw2kYB1HIePrR2XxG3DQb0FENX)" vector-effect="non-scaling-stroke" stroke-width="12" stroke="rgb(253,220,113)" stroke-opacity="100" stroke-linejoin="miter" stroke-linecap="round" stroke-miterlimit="1"/></g></g></g></g><g><path d=" M 81.523 73.359 C 81.659 76.572 76.877 76.794 76.845 80.718 C 76.817 84.128 76.147 87.129 73.433 88.854 C 70.718 90.578 67.233 88.761 64.166 88.891 C 61.098 89.021 58.82 91.082 55.969 89.594 C 53.119 88.106 53.079 85.725 51.432 83.133 C 49.785 80.541 46.597 78.65 46.461 75.438 C 46.325 72.225 49.523 70.689 50.944 67.967 C 52.365 65.245 51.972 61.071 54.686 59.347 C 57.401 57.622 60.366 59.712 63.434 59.582 C 66.502 59.451 69.843 57.299 72.694 58.788 C 75.544 60.276 75.049 64.088 76.696 66.68 C 78.343 69.272 81.387 70.147 81.523 73.359 Z " fill="rgb(253,220,113)"/><path d=" M 76.055 80.97 C 74.718 83.576 70.118 80.978 68.625 83.153 C 67.098 85.377 66.893 88.08 64.107 87.924 C 61.568 87.781 62.342 83.261 60.234 82.054 C 58.127 80.847 53.443 83.873 52.259 81.112 C 51.028 78.239 56.024 78.156 55.955 75.019 C 55.885 71.881 50.408 70.12 51.672 67.913 C 52.936 65.706 57.527 68.079 59.626 66.858 C 61.725 65.636 62.021 60.316 64.564 60.308 C 67.107 60.299 66.517 65.721 68.625 66.928 C 70.732 68.135 75.656 65.455 76.935 67.653 C 78.215 69.851 71.478 71.656 71.486 74.084 C 71.495 76.513 77.216 78.707 76.055 80.97 Z " fill="rgb(254,238,209)"/></g></g></g></svg>