<?xml version="1.0" encoding="UTF-8" standalone="no"?><!-- Generator: Gravit.io --><svg xmlns="http://www.w3.org/2000/svg" xmlns:xlink="http://www.w3.org/1999/xlink" style="isolation:isolate" viewBox="0 0 80 26" width="80pt" height="26pt"><defs><clipPath id="_clipPath_952a60RMgjGWq0nn4vFA1y2X7T0egPlX"><rect width="80" height="26"/></clipPath></defs><g clip-path="url(#_clipPath_952a60RMgjGWq0nn4vFA1y2X7T0egPlX)"><g><path d=" M 70.462 18.973 L 70.462 18.973 Q 70.815 18.973 71.02 19.268 L 71.02 19.268 L 71.02 19.268 Q 71.224 19.562 71.224 20.077 L 71.224 20.077 L 71.224 20.077 Q 71.224 21.058 70.707 21.598 L 70.707 21.598 L 70.707 21.598 Q 69.536 22.898 68.161 23.732 L 68.161 23.732 L 68.161 23.732 Q 66.786 24.566 65.043 24.566 L 65.043 24.566 L 65.043 24.566 Q 62.647 24.566 61.49 22.604 L 61.49 22.604 L 61.49 22.604 Q 60.332 20.641 60.332 17.526 L 60.332 17.526 L 60.332 17.526 Q 60.332 14.533 61.19 10.706 L 61.19 10.706 L 61.19 10.706 Q 62.048 6.88 63.722 4.132 L 63.722 4.132 L 63.722 4.132 Q 65.397 1.385 67.711 1.385 L 67.711 1.385 L 67.711 1.385 Q 69.018 1.385 69.767 2.477 L 69.767 2.477 L 69.767 2.477 Q 70.516 3.568 70.516 5.604 L 70.516 5.604 L 70.516 5.604 Q 70.516 8.523 68.719 12.374 L 68.719 12.374 L 68.719 12.374 Q 66.922 16.226 63.845 20.004 L 63.845 20.004 L 63.845 20.004 Q 64.035 21.009 64.471 21.439 L 64.471 21.439 L 64.471 21.439 Q 64.907 21.868 65.615 21.868 L 65.615 21.868 L 65.615 21.868 Q 66.731 21.868 67.575 21.292 L 67.575 21.292 L 67.575 21.292 Q 68.419 20.715 69.726 19.317 L 69.726 19.317 L 69.726 19.317 Q 70.053 18.973 70.462 18.973 L 70.462 18.973 Z  M 67.112 3.813 L 67.112 3.813 Q 66.486 3.813 65.696 5.849 L 65.696 5.849 L 65.696 5.849 Q 64.907 7.885 64.308 10.903 L 64.308 10.903 L 64.308 10.903 Q 63.709 13.92 63.654 16.692 L 63.654 16.692 L 63.654 16.692 Q 65.587 13.822 66.731 10.94 L 66.731 10.94 L 66.731 10.94 Q 67.875 8.057 67.875 5.678 L 67.875 5.678 L 67.875 5.678 Q 67.875 3.813 67.112 3.813 L 67.112 3.813 Z " fill-rule="evenodd" fill="rgb(255,255,255)"/><path d=" M 61.582 18.973 L 61.582 18.973 Q 61.936 18.973 62.14 19.268 L 62.14 19.268 L 62.14 19.268 Q 62.345 19.562 62.345 20.077 L 62.345 20.077 L 62.345 20.077 Q 62.345 21.058 61.827 21.598 L 61.827 21.598 L 61.827 21.598 Q 60.656 22.898 59.281 23.732 L 59.281 23.732 L 59.281 23.732 Q 57.906 24.566 56.164 24.566 L 56.164 24.566 L 56.164 24.566 Q 53.767 24.566 52.61 22.604 L 52.61 22.604 L 52.61 22.604 Q 51.453 20.641 51.453 17.526 L 51.453 17.526 L 51.453 17.526 Q 51.453 14.533 52.311 10.706 L 52.311 10.706 L 52.311 10.706 Q 53.168 6.88 54.843 4.132 L 54.843 4.132 L 54.843 4.132 Q 56.518 1.385 58.832 1.385 L 58.832 1.385 L 58.832 1.385 Q 60.139 1.385 60.888 2.477 L 60.888 2.477 L 60.888 2.477 Q 61.636 3.568 61.636 5.604 L 61.636 5.604 L 61.636 5.604 Q 61.636 8.523 59.839 12.374 L 59.839 12.374 L 59.839 12.374 Q 58.043 16.226 54.966 20.004 L 54.966 20.004 L 54.966 20.004 Q 55.156 21.009 55.592 21.439 L 55.592 21.439 L 55.592 21.439 Q 56.027 21.868 56.735 21.868 L 56.735 21.868 L 56.735 21.868 Q 57.852 21.868 58.696 21.292 L 58.696 21.292 L 58.696 21.292 Q 59.54 20.715 60.847 19.317 L 60.847 19.317 L 60.847 19.317 Q 61.174 18.973 61.582 18.973 L 61.582 18.973 Z  M 58.233 3.813 L 58.233 3.813 Q 57.607 3.813 56.817 5.849 L 56.817 5.849 L 56.817 5.849 Q 56.027 7.885 55.428 10.903 L 55.428 10.903 L 55.428 10.903 Q 54.829 13.92 54.775 16.692 L 54.775 16.692 L 54.775 16.692 Q 56.708 13.822 57.852 10.94 L 57.852 10.94 L 57.852 10.94 Q 58.995 8.057 58.995 5.678 L 58.995 5.678 L 58.995 5.678 Q 58.995 3.813 58.233 3.813 L 58.233 3.813 Z " fill-rule="evenodd" fill="rgb(255,255,255)"/><path d=" M 48.095 24.615 L 48.095 24.615 Q 46.325 24.615 45.522 23.487 L 45.522 23.487 L 45.522 23.487 Q 44.719 22.358 44.719 20.494 L 44.719 20.494 L 44.719 20.494 Q 44.719 19.39 45.032 17.661 L 45.032 17.661 L 45.032 17.661 Q 45.345 15.931 45.835 14.435 L 45.835 14.435 L 45.835 14.435 Q 46.08 13.65 46.489 13.356 L 46.489 13.356 L 46.489 13.356 Q 46.897 13.061 47.795 13.061 L 47.795 13.061 L 47.795 13.061 Q 49.184 13.061 49.184 13.895 L 49.184 13.895 L 49.184 13.895 Q 49.184 14.509 48.667 16.741 L 48.667 16.741 L 48.667 16.741 Q 48.013 19.439 48.013 20.396 L 48.013 20.396 L 48.013 20.396 Q 48.013 21.132 48.231 21.524 L 48.231 21.524 L 48.231 21.524 Q 48.449 21.917 48.966 21.917 L 48.966 21.917 L 48.966 21.917 Q 49.456 21.917 50.192 21.304 L 50.192 21.304 L 50.192 21.304 Q 50.927 20.69 52.152 19.366 L 52.152 19.366 L 52.152 19.366 Q 52.479 19.022 52.887 19.022 L 52.887 19.022 L 52.887 19.022 Q 53.241 19.022 53.445 19.317 L 53.445 19.317 L 53.445 19.317 Q 53.65 19.611 53.65 20.126 L 53.65 20.126 L 53.65 20.126 Q 53.65 21.107 53.132 21.647 L 53.132 21.647 L 53.132 21.647 Q 50.437 24.615 48.095 24.615 L 48.095 24.615 Z " fill="rgb(255,255,255)"/><path d=" M 33.195 24.566 L 33.195 24.566 Q 32.16 24.566 31.738 23.585 L 31.738 23.585 L 31.738 23.585 Q 31.316 22.604 31.316 20.445 L 31.316 20.445 L 31.316 20.445 Q 31.316 17.256 32.323 14.386 L 32.323 14.386 L 32.323 14.386 Q 32.568 13.675 33.127 13.344 L 33.127 13.344 L 33.127 13.344 Q 33.685 13.012 34.692 13.012 L 34.692 13.012 L 34.692 13.012 Q 35.237 13.012 35.454 13.135 L 35.454 13.135 L 35.454 13.135 Q 35.672 13.258 35.672 13.601 L 35.672 13.601 L 35.672 13.601 Q 35.672 13.993 35.264 15.367 L 35.264 15.367 L 35.264 15.367 Q 34.992 16.348 34.828 17.084 L 34.828 17.084 L 34.828 17.084 Q 34.665 17.82 34.556 18.9 L 34.556 18.9 L 34.556 18.9 Q 35.454 16.79 36.571 15.465 L 36.571 15.465 L 36.571 15.465 Q 37.688 14.141 38.763 13.576 L 38.763 13.576 L 38.763 13.576 Q 39.839 13.012 40.737 13.012 L 40.737 13.012 L 40.737 13.012 Q 42.507 13.012 42.507 14.607 L 42.507 14.607 L 42.507 14.607 Q 42.507 15.563 41.908 18.066 L 41.908 18.066 L 41.908 18.066 Q 41.391 20.2 41.391 20.887 L 41.391 20.887 L 41.391 20.887 Q 41.391 21.868 42.18 21.868 L 42.18 21.868 L 42.18 21.868 Q 42.725 21.868 43.473 21.267 L 43.473 21.267 L 43.473 21.267 Q 44.222 20.666 45.475 19.317 L 45.475 19.317 L 45.475 19.317 Q 45.802 18.973 46.21 18.973 L 46.21 18.973 L 46.21 18.973 Q 46.564 18.973 46.768 19.268 L 46.768 19.268 L 46.768 19.268 Q 46.973 19.562 46.973 20.077 L 46.973 20.077 L 46.973 20.077 Q 46.973 21.058 46.455 21.598 L 46.455 21.598 L 46.455 21.598 Q 45.284 22.898 43.936 23.732 L 43.936 23.732 L 43.936 23.732 Q 42.589 24.566 40.873 24.566 L 40.873 24.566 L 40.873 24.566 Q 39.484 24.566 38.776 23.843 L 38.776 23.843 L 38.776 23.843 Q 38.069 23.119 38.069 21.745 L 38.069 21.745 L 38.069 21.745 Q 38.069 21.058 38.45 19.292 L 38.45 19.292 L 38.45 19.292 Q 38.804 17.747 38.804 17.158 L 38.804 17.158 L 38.804 17.158 Q 38.804 16.765 38.504 16.765 L 38.504 16.765 L 38.504 16.765 Q 38.15 16.765 37.51 17.587 L 37.51 17.587 L 37.51 17.587 Q 36.87 18.409 36.203 19.758 L 36.203 19.758 L 36.203 19.758 Q 35.536 21.107 35.128 22.604 L 35.128 22.604 L 35.128 22.604 Q 34.828 23.757 34.433 24.162 L 34.433 24.162 L 34.433 24.162 Q 34.039 24.566 33.195 24.566 L 33.195 24.566 Z " fill="rgb(255,255,255)"/><path d=" M 21.859 24.615 L 21.859 24.615 Q 20.17 24.615 19.163 23.511 L 19.163 23.511 L 19.163 23.511 Q 18.155 22.408 18.155 20.617 L 18.155 20.617 L 18.155 20.617 Q 18.155 18.654 19.163 16.901 L 19.163 16.901 L 19.163 16.901 Q 20.17 15.146 21.845 14.08 L 21.845 14.08 L 21.845 14.08 Q 23.519 13.012 25.398 13.012 L 25.398 13.012 L 25.398 13.012 Q 25.997 13.012 26.202 13.221 L 26.202 13.221 L 26.202 13.221 Q 26.406 13.429 26.542 13.969 L 26.542 13.969 L 26.542 13.969 Q 27.114 13.871 27.74 13.871 L 27.74 13.871 L 27.74 13.871 Q 29.074 13.871 29.074 14.729 L 29.074 14.729 L 29.074 14.729 Q 29.074 15.245 28.666 17.182 L 28.666 17.182 L 28.666 17.182 Q 28.04 20.004 28.04 21.107 L 28.04 21.107 L 28.04 21.107 Q 28.04 21.475 28.244 21.696 L 28.244 21.696 L 28.244 21.696 Q 28.448 21.917 28.775 21.917 L 28.775 21.917 L 28.775 21.917 Q 29.292 21.917 30.027 21.316 L 30.027 21.316 L 30.027 21.316 Q 30.763 20.715 32.015 19.366 L 32.015 19.366 L 32.015 19.366 Q 32.342 19.022 32.75 19.022 L 32.75 19.022 L 32.75 19.022 Q 33.104 19.022 33.308 19.317 L 33.308 19.317 L 33.308 19.317 Q 33.513 19.611 33.513 20.126 L 33.513 20.126 L 33.513 20.126 Q 33.513 21.107 32.995 21.647 L 32.995 21.647 L 32.995 21.647 Q 31.879 22.898 30.626 23.757 L 30.626 23.757 L 30.626 23.757 Q 29.374 24.615 28.203 24.615 L 28.203 24.615 L 28.203 24.615 Q 27.304 24.615 26.555 24.064 L 26.555 24.064 L 26.555 24.064 Q 25.807 23.511 25.425 22.555 L 25.425 22.555 L 25.425 22.555 Q 24.01 24.615 21.859 24.615 L 21.859 24.615 Z  M 22.839 22.138 L 22.839 22.138 Q 23.438 22.138 23.983 21.5 L 23.983 21.5 L 23.983 21.5 Q 24.527 20.862 24.772 19.807 L 24.772 19.807 L 25.78 15.294 L 25.78 15.294 Q 24.636 15.318 23.669 16.067 L 23.669 16.067 L 23.669 16.067 Q 22.703 16.815 22.131 18.041 L 22.131 18.041 L 22.131 18.041 Q 21.559 19.268 21.559 20.641 L 21.559 20.641 L 21.559 20.641 Q 21.559 21.402 21.899 21.77 L 21.899 21.77 L 21.899 21.77 Q 22.24 22.138 22.839 22.138 L 22.839 22.138 Z " fill-rule="evenodd" fill="rgb(255,255,255)"/><path d=" M 20.777 13.895 L 20.777 13.895 Q 21.403 13.895 21.689 14.141 L 21.689 14.141 L 21.689 14.141 Q 21.975 14.386 21.975 14.778 L 21.975 14.778 L 21.975 14.778 Q 21.975 15.416 21.553 15.907 L 21.553 15.907 L 21.553 15.907 Q 21.131 16.398 20.232 16.422 L 20.232 16.422 L 20.232 16.422 Q 18.054 16.471 16.366 16.128 L 16.366 16.128 L 16.366 16.128 Q 14.432 19.783 11.696 22.199 L 11.696 22.199 L 11.696 22.199 Q 8.959 24.615 6.209 24.615 L 6.209 24.615 L 6.209 24.615 Q 3.377 24.615 1.989 21.647 L 1.989 21.647 L 1.989 21.647 Q 0.6 18.679 0.6 13.626 L 0.6 13.626 L 0.6 13.626 Q 0.6 9.308 1.281 5.874 L 1.281 5.874 L 1.281 5.874 Q 1.526 4.598 1.975 4.145 L 1.975 4.145 L 1.975 4.145 Q 2.424 3.691 3.514 3.691 L 3.514 3.691 L 3.514 3.691 Q 5.311 3.691 5.311 5.089 L 5.311 5.089 L 5.311 5.089 Q 5.311 5.236 5.256 5.629 L 5.256 5.629 L 5.256 5.629 Q 4.439 10.044 4.439 13.626 L 4.439 13.626 L 4.439 13.626 Q 4.439 17.379 5.134 19.329 L 5.134 19.329 L 5.134 19.329 Q 5.828 21.279 7.217 21.279 L 7.217 21.279 L 7.217 21.279 Q 8.633 21.279 10.294 19.513 L 10.294 19.513 L 10.294 19.513 Q 11.954 17.747 13.343 15.073 L 13.343 15.073 L 13.343 15.073 Q 11.682 14.141 10.838 12.657 L 10.838 12.657 L 10.838 12.657 Q 9.994 11.172 9.994 9.235 L 9.994 9.235 L 9.994 9.235 Q 9.994 7.297 10.661 5.96 L 10.661 5.96 L 10.661 5.96 Q 11.328 4.623 12.486 3.96 L 12.486 3.96 L 12.486 3.96 Q 13.643 3.298 15.059 3.298 L 15.059 3.298 L 15.059 3.298 Q 16.801 3.298 17.822 4.427 L 17.822 4.427 L 17.822 4.427 Q 18.844 5.555 18.844 7.517 L 18.844 7.517 L 18.844 7.517 Q 18.844 10.338 17.482 13.675 L 17.482 13.675 L 17.482 13.675 Q 18.925 13.895 20.777 13.895 L 20.777 13.895 L 20.777 13.895 Z  M 12.744 9.063 L 12.744 9.063 Q 12.744 11.467 14.459 12.62 L 14.459 12.62 L 14.459 12.62 Q 15.522 9.872 15.522 8.082 L 15.522 8.082 L 15.522 8.082 Q 15.522 7.051 15.222 6.573 L 15.222 6.573 L 15.222 6.573 Q 14.923 6.095 14.405 6.095 L 14.405 6.095 L 14.405 6.095 Q 13.67 6.095 13.207 6.868 L 13.207 6.868 L 13.207 6.868 Q 12.744 7.64 12.744 9.063 L 12.744 9.063 L 12.744 9.063 Z " fill-rule="evenodd" fill="rgb(255,255,255)"/><path d=" M 71.994 24.615 C 70.959 24.615 70.115 24.247 69.461 23.511 C 68.835 22.775 68.508 21.819 68.508 20.617 C 68.508 19.317 68.835 18.066 69.516 16.888 C 70.197 15.735 71.095 14.778 72.211 14.067 C 73.328 13.356 74.499 13.012 75.751 13.012 C 76.16 13.012 76.432 13.086 76.568 13.209 C 76.704 13.356 76.813 13.601 76.895 13.969 C 77.249 13.895 77.63 13.871 78.038 13.871 C 78.474 13.871 78.801 13.969 79.046 14.165 C 79.291 14.361 79.4 14.631 79.4 14.999 C 79.4 15.367 79.318 16.03 79.128 16.962 C 78.937 17.967 78.774 18.9 78.665 19.807 C 78.556 20.715 78.501 21.745 78.501 22.874 C 78.501 23.487 78.365 23.928 78.093 24.198 C 77.793 24.468 77.33 24.615 76.704 24.615 C 76.078 24.615 75.642 24.468 75.315 24.198 C 75.043 23.928 74.88 23.511 74.88 22.898 L 74.907 22.506 C 74.335 23.904 73.382 24.615 71.994 24.615 Z  M 73.055 22.138 C 73.573 22.138 74.036 21.819 74.444 21.181 C 74.853 20.543 75.234 19.415 75.56 17.771 L 76.078 15.294 C 75.343 15.318 74.635 15.563 74.008 16.054 C 73.382 16.569 72.865 17.232 72.484 18.041 C 72.102 18.851 71.912 19.734 71.912 20.641 C 71.912 21.132 72.021 21.5 72.238 21.745 C 72.429 22.015 72.702 22.138 73.055 22.138 Z " fill="rgb(255,255,255)"/><path d=" M 48.248 11.459 C 47.486 11.459 46.914 11.3 46.533 10.981 C 46.152 10.662 45.961 10.216 45.961 9.644 C 45.961 9.072 46.211 8.593 46.71 8.209 C 47.209 7.825 47.831 7.632 48.575 7.632 C 49.247 7.632 49.791 7.78 50.209 8.074 C 50.626 8.368 50.835 8.785 50.835 9.325 C 50.835 9.979 50.599 10.498 50.127 10.882 C 49.655 11.267 49.029 11.459 48.248 11.459 Z " fill="rgb(255,255,255)"/></g></g></svg>