<?xml version="1.0" encoding="UTF-8" standalone="no"?><!-- Generator: Gravit.io --><svg xmlns="http://www.w3.org/2000/svg" xmlns:xlink="http://www.w3.org/1999/xlink" style="isolation:isolate" viewBox="0 0 128 128" width="128pt" height="128pt"><defs><clipPath id="_clipPath_mn05wy99NUxEXAbwYaaJlOC0SBMXUyU6"><rect width="128" height="128"/></clipPath></defs><g clip-path="url(#_clipPath_mn05wy99NUxEXAbwYaaJlOC0SBMXUyU6)"><rect width="128" height="128" style="fill:rgb(0,0,0)" fill-opacity="0"/><path d=" M 45.373 41.052 C 45.208 42.121 45.326 44.6 46.175 48.089 C 38.117 41.485 27.941 41.712 16.726 43.807 C 13.171 44.471 9.649 44.692 6.16 44.469 C 7.954 51.269 9.864 56.818 11.89 61.118 C 15.666 69.135 21.773 74.659 23.562 76.1 C 24.771 77.074 28.785 78.996 35.246 80.13 C 34.525 80.368 33.847 80.624 33.213 80.897 C 23.296 85.164 18.962 94.608 15.919 105.88 C 14.977 109.372 13.649 112.642 11.936 115.689 C 18.841 117.02 24.671 117.704 29.424 117.742 C 38.285 117.814 45.91 114.705 47.984 113.717 C 50.058 112.729 56.663 107.11 62.228 95.464 C 62.891 94.078 63.498 92.597 64.05 91.02 C 66.777 98.784 69.663 104.435 72.709 107.973 C 79.751 116.156 90.06 117.462 101.725 116.988 C 105.339 116.841 108.856 117.128 112.277 117.85 C 111.477 110.863 110.384 105.096 108.996 100.55 C 106.409 92.075 101.159 85.731 99.596 84.049 C 98.643 83.024 95.551 80.912 90.394 79.005 C 93.388 78.7 95.944 78.182 98.062 77.45 C 108.266 73.924 113.283 64.825 117.146 53.807 C 118.343 50.394 119.907 47.231 121.84 44.318 C 115.051 42.483 109.287 41.372 104.55 40.984 C 95.718 40.261 87.886 42.801 85.745 43.633 C 84.842 43.985 83.075 45.097 80.854 47.107 C 82.797 36.604 77.454 27.765 69.903 18.965 C 67.548 16.22 65.594 13.282 64.04 10.15 C 59.052 15.108 55.205 19.54 52.497 23.447 C 47.449 30.73 45.725 38.781 45.373 41.052 Z  M 64.168 80.691 C 71.033 80.691 76.598 75.125 76.598 68.26 C 76.598 61.395 71.033 55.83 64.168 55.83 C 57.302 55.83 51.737 61.395 51.737 68.26 C 51.737 75.125 57.302 80.691 64.168 80.691 Z " fill-rule="evenodd" fill="rgb(181,181,181)"/></g></svg>