<svg width="171" height="164" viewBox="0 0 171 164" fill="none" xmlns="http://www.w3.org/2000/svg">
<path fill-rule="evenodd" clip-rule="evenodd" d="M147 162.5C150 151.5 157 121 126.5 103C126.834 102.917 127.349 102.833 128.019 102.724C135.371 101.533 161.335 97.3258 170.5 57C170.092 56.7144 169.57 56.3122 168.94 55.8258C161.846 50.3521 140.929 34.2139 112 53.5C113 46.5 116.5 18.5 85.9998 0C85.8479 0.0810208 85.688 0.165939 85.5205 0.254863C77.4206 4.55612 51.672 18.2293 59.9998 53.5C59.7276 53.3239 59.4467 53.1406 59.1567 52.9513C50.3931 47.2327 33.3951 36.1405 0 55.5C0.5 62 4.5 97.5 43.5 101C42.9309 101.417 42.2755 101.869 41.5538 102.367C32.764 108.427 14.145 121.263 22 161C22.1601 161.034 22.3405 161.074 22.5405 161.118C31.0861 162.989 75.2456 172.658 84.0201 116.239C84.6899 134.593 98.0644 168.42 147 162.5ZM85 106C95.4934 106 104 97.4934 104 87C104 76.5066 95.4934 68 85 68C74.5066 68 66 76.5066 66 87C66 97.4934 74.5066 106 85 106Z" fill="#B5B5B5"/>
</svg>
