<?xml version="1.0" encoding="UTF-8" standalone="no"?><!-- Generator: Gravit.io --><svg xmlns="http://www.w3.org/2000/svg" xmlns:xlink="http://www.w3.org/1999/xlink" style="isolation:isolate" viewBox="0 0 56.812 24" width="56.812pt" height="24pt"><defs><clipPath id="_clipPath_W2pUDuHvYxDEIYkXj24vF15vDIMWlg77"><rect width="56.812" height="24"/></clipPath></defs><g clip-path="url(#_clipPath_W2pUDuHvYxDEIYkXj24vF15vDIMWlg77)"><rect width="56.812" height="24" style="fill:rgb(0,0,0)" fill-opacity="0"/><g><path d=" M 50.363 16.306 L 50.363 16.306 Q 50.618 16.306 50.765 16.518 L 50.765 16.518 L 50.765 16.518 Q 50.912 16.73 50.912 17.101 L 50.912 17.101 L 50.912 17.101 Q 50.912 17.809 50.54 18.198 L 50.54 18.198 L 50.54 18.198 Q 49.696 19.135 48.704 19.736 L 48.704 19.736 L 48.704 19.736 Q 47.713 20.337 46.457 20.337 L 46.457 20.337 L 46.457 20.337 Q 44.73 20.337 43.896 18.923 L 43.896 18.923 L 43.896 18.923 Q 43.062 17.508 43.062 15.262 L 43.062 15.262 L 43.062 15.262 Q 43.062 13.105 43.68 10.347 L 43.68 10.347 L 43.68 10.347 Q 44.298 7.588 45.505 5.608 L 45.505 5.608 L 45.505 5.608 Q 46.712 3.628 48.38 3.628 L 48.38 3.628 L 48.38 3.628 Q 49.323 3.628 49.862 4.415 L 49.862 4.415 L 49.862 4.415 Q 50.402 5.201 50.402 6.669 L 50.402 6.669 L 50.402 6.669 Q 50.402 8.773 49.107 11.549 L 49.107 11.549 L 49.107 11.549 Q 47.811 14.325 45.594 17.048 L 45.594 17.048 L 45.594 17.048 Q 45.731 17.773 46.045 18.083 L 46.045 18.083 L 46.045 18.083 Q 46.359 18.392 46.869 18.392 L 46.869 18.392 L 46.869 18.392 Q 47.674 18.392 48.282 17.977 L 48.282 17.977 L 48.282 17.977 Q 48.891 17.561 49.833 16.553 L 49.833 16.553 L 49.833 16.553 Q 50.068 16.306 50.363 16.306 L 50.363 16.306 Z  M 47.949 5.378 L 47.949 5.378 Q 47.497 5.378 46.928 6.846 L 46.928 6.846 L 46.928 6.846 Q 46.359 8.313 45.927 10.488 L 45.927 10.488 L 45.927 10.488 Q 45.495 12.663 45.456 14.661 L 45.456 14.661 L 45.456 14.661 Q 46.85 12.592 47.674 10.515 L 47.674 10.515 L 47.674 10.515 Q 48.498 8.437 48.498 6.722 L 48.498 6.722 L 48.498 6.722 Q 48.498 5.378 47.949 5.378 L 47.949 5.378 Z " fill-rule="evenodd" fill="rgb(128,128,128)"/><path d=" M 43.963 16.306 L 43.963 16.306 Q 44.218 16.306 44.365 16.518 L 44.365 16.518 L 44.365 16.518 Q 44.512 16.73 44.512 17.101 L 44.512 17.101 L 44.512 17.101 Q 44.512 17.809 44.139 18.198 L 44.139 18.198 L 44.139 18.198 Q 43.295 19.135 42.304 19.736 L 42.304 19.736 L 42.304 19.736 Q 41.313 20.337 40.057 20.337 L 40.057 20.337 L 40.057 20.337 Q 38.329 20.337 37.495 18.923 L 37.495 18.923 L 37.495 18.923 Q 36.661 17.508 36.661 15.262 L 36.661 15.262 L 36.661 15.262 Q 36.661 13.105 37.28 10.347 L 37.28 10.347 L 37.28 10.347 Q 37.898 7.588 39.105 5.608 L 39.105 5.608 L 39.105 5.608 Q 40.312 3.628 41.98 3.628 L 41.98 3.628 L 41.98 3.628 Q 42.922 3.628 43.462 4.415 L 43.462 4.415 L 43.462 4.415 Q 44.002 5.201 44.002 6.669 L 44.002 6.669 L 44.002 6.669 Q 44.002 8.773 42.706 11.549 L 42.706 11.549 L 42.706 11.549 Q 41.411 14.325 39.193 17.048 L 39.193 17.048 L 39.193 17.048 Q 39.33 17.773 39.644 18.083 L 39.644 18.083 L 39.644 18.083 Q 39.959 18.392 40.469 18.392 L 40.469 18.392 L 40.469 18.392 Q 41.274 18.392 41.882 17.977 L 41.882 17.977 L 41.882 17.977 Q 42.491 17.561 43.433 16.553 L 43.433 16.553 L 43.433 16.553 Q 43.668 16.306 43.963 16.306 L 43.963 16.306 Z  M 41.548 5.378 L 41.548 5.378 Q 41.097 5.378 40.528 6.846 L 40.528 6.846 L 40.528 6.846 Q 39.959 8.313 39.527 10.488 L 39.527 10.488 L 39.527 10.488 Q 39.095 12.663 39.056 14.661 L 39.056 14.661 L 39.056 14.661 Q 40.449 12.592 41.274 10.515 L 41.274 10.515 L 41.274 10.515 Q 42.098 8.437 42.098 6.722 L 42.098 6.722 L 42.098 6.722 Q 42.098 5.378 41.548 5.378 L 41.548 5.378 Z " fill-rule="evenodd" fill="rgb(128,128,128)"/><path d=" M 34.241 20.372 L 34.241 20.372 Q 32.965 20.372 32.386 19.559 L 32.386 19.559 L 32.386 19.559 Q 31.807 18.746 31.807 17.402 L 31.807 17.402 L 31.807 17.402 Q 31.807 16.606 32.033 15.36 L 32.033 15.36 L 32.033 15.36 Q 32.258 14.113 32.612 13.034 L 32.612 13.034 L 32.612 13.034 Q 32.788 12.469 33.083 12.256 L 33.083 12.256 L 33.083 12.256 Q 33.377 12.044 34.025 12.044 L 34.025 12.044 L 34.025 12.044 Q 35.026 12.044 35.026 12.645 L 35.026 12.645 L 35.026 12.645 Q 35.026 13.087 34.653 14.697 L 34.653 14.697 L 34.653 14.697 Q 34.182 16.642 34.182 17.331 L 34.182 17.331 L 34.182 17.331 Q 34.182 17.862 34.339 18.145 L 34.339 18.145 L 34.339 18.145 Q 34.496 18.427 34.869 18.427 L 34.869 18.427 L 34.869 18.427 Q 35.222 18.427 35.752 17.985 L 35.752 17.985 L 35.752 17.985 Q 36.282 17.543 37.165 16.588 L 37.165 16.588 L 37.165 16.588 Q 37.401 16.341 37.695 16.341 L 37.695 16.341 L 37.695 16.341 Q 37.95 16.341 38.097 16.553 L 38.097 16.553 L 38.097 16.553 Q 38.245 16.765 38.245 17.137 L 38.245 17.137 L 38.245 17.137 Q 38.245 17.844 37.872 18.233 L 37.872 18.233 L 37.872 18.233 Q 35.929 20.372 34.241 20.372 L 34.241 20.372 Z " fill="rgb(128,128,128)"/><path d=" M 23.501 20.337 L 23.501 20.337 Q 22.754 20.337 22.45 19.63 L 22.45 19.63 L 22.45 19.63 Q 22.146 18.923 22.146 17.366 L 22.146 17.366 L 22.146 17.366 Q 22.146 15.068 22.872 12.999 L 22.872 12.999 L 22.872 12.999 Q 23.049 12.486 23.451 12.248 L 23.451 12.248 L 23.451 12.248 Q 23.854 12.009 24.58 12.009 L 24.58 12.009 L 24.58 12.009 Q 24.972 12.009 25.129 12.097 L 25.129 12.097 L 25.129 12.097 Q 25.286 12.186 25.286 12.433 L 25.286 12.433 L 25.286 12.433 Q 25.286 12.716 24.992 13.706 L 24.992 13.706 L 24.992 13.706 Q 24.796 14.414 24.678 14.944 L 24.678 14.944 L 24.678 14.944 Q 24.56 15.475 24.482 16.253 L 24.482 16.253 L 24.482 16.253 Q 25.129 14.732 25.934 13.777 L 25.934 13.777 L 25.934 13.777 Q 26.739 12.822 27.514 12.416 L 27.514 12.416 L 27.514 12.416 Q 28.289 12.009 28.937 12.009 L 28.937 12.009 L 28.937 12.009 Q 30.213 12.009 30.213 13.158 L 30.213 13.158 L 30.213 13.158 Q 30.213 13.848 29.781 15.651 L 29.781 15.651 L 29.781 15.651 Q 29.408 17.19 29.408 17.685 L 29.408 17.685 L 29.408 17.685 Q 29.408 18.392 29.977 18.392 L 29.977 18.392 L 29.977 18.392 Q 30.37 18.392 30.91 17.959 L 30.91 17.959 L 30.91 17.959 Q 31.449 17.526 32.352 16.553 L 32.352 16.553 L 32.352 16.553 Q 32.588 16.306 32.882 16.306 L 32.882 16.306 L 32.882 16.306 Q 33.137 16.306 33.285 16.518 L 33.285 16.518 L 33.285 16.518 Q 33.432 16.73 33.432 17.101 L 33.432 17.101 L 33.432 17.101 Q 33.432 17.809 33.059 18.198 L 33.059 18.198 L 33.059 18.198 Q 32.215 19.135 31.243 19.736 L 31.243 19.736 L 31.243 19.736 Q 30.272 20.337 29.035 20.337 L 29.035 20.337 L 29.035 20.337 Q 28.034 20.337 27.524 19.816 L 27.524 19.816 L 27.524 19.816 Q 27.014 19.294 27.014 18.304 L 27.014 18.304 L 27.014 18.304 Q 27.014 17.809 27.288 16.535 L 27.288 16.535 L 27.288 16.535 Q 27.544 15.421 27.544 14.997 L 27.544 14.997 L 27.544 14.997 Q 27.544 14.714 27.328 14.714 L 27.328 14.714 L 27.328 14.714 Q 27.073 14.714 26.611 15.307 L 26.611 15.307 L 26.611 15.307 Q 26.15 15.899 25.669 16.871 L 25.669 16.871 L 25.669 16.871 Q 25.188 17.844 24.894 18.923 L 24.894 18.923 L 24.894 18.923 Q 24.678 19.754 24.393 20.045 L 24.393 20.045 L 24.393 20.045 Q 24.109 20.337 23.501 20.337 L 23.501 20.337 Z " fill="rgb(128,128,128)"/><path d=" M 15.329 20.372 L 15.329 20.372 Q 14.112 20.372 13.386 19.577 L 13.386 19.577 L 13.386 19.577 Q 12.66 18.781 12.66 17.49 L 12.66 17.49 L 12.66 17.49 Q 12.66 16.076 13.386 14.812 L 13.386 14.812 L 13.386 14.812 Q 14.112 13.547 15.319 12.778 L 15.319 12.778 L 15.319 12.778 Q 16.526 12.009 17.881 12.009 L 17.881 12.009 L 17.881 12.009 Q 18.313 12.009 18.46 12.159 L 18.46 12.159 L 18.46 12.159 Q 18.607 12.309 18.705 12.698 L 18.705 12.698 L 18.705 12.698 Q 19.117 12.628 19.569 12.628 L 19.569 12.628 L 19.569 12.628 Q 20.53 12.628 20.53 13.247 L 20.53 13.247 L 20.53 13.247 Q 20.53 13.618 20.236 15.015 L 20.236 15.015 L 20.236 15.015 Q 19.785 17.048 19.785 17.844 L 19.785 17.844 L 19.785 17.844 Q 19.785 18.109 19.932 18.268 L 19.932 18.268 L 19.932 18.268 Q 20.079 18.427 20.315 18.427 L 20.315 18.427 L 20.315 18.427 Q 20.688 18.427 21.217 17.994 L 21.217 17.994 L 21.217 17.994 Q 21.747 17.561 22.65 16.588 L 22.65 16.588 L 22.65 16.588 Q 22.886 16.341 23.18 16.341 L 23.18 16.341 L 23.18 16.341 Q 23.435 16.341 23.582 16.553 L 23.582 16.553 L 23.582 16.553 Q 23.73 16.765 23.73 17.137 L 23.73 17.137 L 23.73 17.137 Q 23.73 17.844 23.357 18.233 L 23.357 18.233 L 23.357 18.233 Q 22.552 19.135 21.649 19.754 L 21.649 19.754 L 21.649 19.754 Q 20.746 20.372 19.902 20.372 L 19.902 20.372 L 19.902 20.372 Q 19.255 20.372 18.715 19.975 L 18.715 19.975 L 18.715 19.975 Q 18.175 19.577 17.9 18.887 L 17.9 18.887 L 17.9 18.887 Q 16.88 20.372 15.329 20.372 L 15.329 20.372 Z  M 16.036 18.587 L 16.036 18.587 Q 16.468 18.587 16.86 18.127 L 16.86 18.127 L 16.86 18.127 Q 17.253 17.667 17.429 16.907 L 17.429 16.907 L 18.156 13.653 L 18.156 13.653 Q 17.331 13.671 16.634 14.21 L 16.634 14.21 L 16.634 14.21 Q 15.938 14.75 15.525 15.634 L 15.525 15.634 L 15.525 15.634 Q 15.113 16.518 15.113 17.508 L 15.113 17.508 L 15.113 17.508 Q 15.113 18.056 15.359 18.321 L 15.359 18.321 L 15.359 18.321 Q 15.604 18.587 16.036 18.587 L 16.036 18.587 Z " fill-rule="evenodd" fill="rgb(128,128,128)"/><path d=" M 14.549 12.645 L 14.549 12.645 Q 15.001 12.645 15.207 12.822 L 15.207 12.822 L 15.207 12.822 Q 15.413 12.999 15.413 13.282 L 15.413 13.282 L 15.413 13.282 Q 15.413 13.742 15.109 14.095 L 15.109 14.095 L 15.109 14.095 Q 14.805 14.449 14.157 14.467 L 14.157 14.467 L 14.157 14.467 Q 12.587 14.502 11.37 14.254 L 11.37 14.254 L 11.37 14.254 Q 9.976 16.889 8.004 18.631 L 8.004 18.631 L 8.004 18.631 Q 6.031 20.372 4.049 20.372 L 4.049 20.372 L 4.049 20.372 Q 2.008 20.372 1.007 18.233 L 1.007 18.233 L 1.007 18.233 Q 0.006 16.093 0.006 12.451 L 0.006 12.451 L 0.006 12.451 Q 0.006 9.339 0.496 6.863 L 0.496 6.863 L 0.496 6.863 Q 0.673 5.944 0.997 5.617 L 0.997 5.617 L 0.997 5.617 Q 1.321 5.29 2.106 5.29 L 2.106 5.29 L 2.106 5.29 Q 3.401 5.29 3.401 6.298 L 3.401 6.298 L 3.401 6.298 Q 3.401 6.404 3.362 6.687 L 3.362 6.687 L 3.362 6.687 Q 2.773 9.869 2.773 12.451 L 2.773 12.451 L 2.773 12.451 Q 2.773 15.156 3.274 16.562 L 3.274 16.562 L 3.274 16.562 Q 3.774 17.968 4.775 17.968 L 4.775 17.968 L 4.775 17.968 Q 5.796 17.968 6.993 16.695 L 6.993 16.695 L 6.993 16.695 Q 8.19 15.421 9.191 13.494 L 9.191 13.494 L 9.191 13.494 Q 7.994 12.822 7.386 11.753 L 7.386 11.753 L 7.386 11.753 Q 6.777 10.683 6.777 9.286 L 6.777 9.286 L 6.777 9.286 Q 6.777 7.889 7.258 6.925 L 7.258 6.925 L 7.258 6.925 Q 7.739 5.962 8.573 5.484 L 8.573 5.484 L 8.573 5.484 Q 9.407 5.007 10.428 5.007 L 10.428 5.007 L 10.428 5.007 Q 11.684 5.007 12.42 5.82 L 12.42 5.82 L 12.42 5.82 Q 13.156 6.633 13.156 8.048 L 13.156 8.048 L 13.156 8.048 Q 13.156 10.081 12.175 12.486 L 12.175 12.486 L 12.175 12.486 Q 13.215 12.645 14.549 12.645 L 14.549 12.645 L 14.549 12.645 Z  M 8.76 9.162 L 8.76 9.162 Q 8.76 10.895 9.996 11.726 L 9.996 11.726 L 9.996 11.726 Q 10.762 9.746 10.762 8.455 L 10.762 8.455 L 10.762 8.455 Q 10.762 7.712 10.546 7.367 L 10.546 7.367 L 10.546 7.367 Q 10.33 7.023 9.957 7.023 L 9.957 7.023 L 9.957 7.023 Q 9.427 7.023 9.093 7.58 L 9.093 7.58 L 9.093 7.58 Q 8.76 8.136 8.76 9.162 L 8.76 9.162 L 8.76 9.162 Z " fill-rule="evenodd" fill="rgb(128,128,128)"/><path d=" M 51.467 20.372 C 50.721 20.372 50.113 20.107 49.642 19.577 C 49.19 19.046 48.955 18.357 48.955 17.49 C 48.955 16.553 49.19 15.651 49.681 14.803 C 50.172 13.972 50.82 13.282 51.624 12.769 C 52.429 12.256 53.273 12.009 54.176 12.009 C 54.47 12.009 54.666 12.062 54.764 12.15 C 54.863 12.256 54.941 12.433 55 12.698 C 55.255 12.645 55.53 12.628 55.824 12.628 C 56.138 12.628 56.374 12.698 56.551 12.84 C 56.727 12.981 56.806 13.176 56.806 13.441 C 56.806 13.706 56.747 14.184 56.609 14.856 C 56.472 15.581 56.354 16.253 56.276 16.907 C 56.197 17.561 56.158 18.304 56.158 19.117 C 56.158 19.559 56.06 19.877 55.864 20.072 C 55.648 20.266 55.314 20.372 54.863 20.372 C 54.411 20.372 54.097 20.266 53.862 20.072 C 53.665 19.877 53.548 19.577 53.548 19.135 L 53.567 18.852 C 53.155 19.86 52.468 20.372 51.467 20.372 Z  M 52.233 18.587 C 52.605 18.587 52.939 18.357 53.234 17.897 C 53.528 17.437 53.803 16.624 54.038 15.439 L 54.411 13.653 C 53.881 13.671 53.371 13.848 52.919 14.201 C 52.468 14.573 52.095 15.05 51.821 15.634 C 51.546 16.217 51.408 16.854 51.408 17.508 C 51.408 17.862 51.487 18.127 51.644 18.304 C 51.781 18.498 51.978 18.587 52.233 18.587 Z " fill="rgb(128,128,128)"/><path d=" M 34.351 10.889 C 33.802 10.889 33.389 10.774 33.115 10.545 C 32.84 10.315 32.703 9.993 32.703 9.581 C 32.703 9.168 32.883 8.824 33.242 8.547 C 33.602 8.27 34.05 8.131 34.587 8.131 C 35.071 8.131 35.463 8.237 35.764 8.449 C 36.065 8.661 36.216 8.962 36.216 9.351 C 36.216 9.822 36.046 10.197 35.705 10.474 C 35.365 10.751 34.914 10.889 34.351 10.889 Z " fill="rgb(128,128,128)"/></g></g></svg>